<svg preserveAspectRatio="none" width="100%" height="100%" overflow="visible" style="display: block;" viewBox="0 0 137 20" fill="none" xmlns="http://www.w3.org/2000/svg">
<g id="Logo">
<g id="Smart Agent Go">
<path d="M8.04461 12.4263C8.04461 12.9952 7.90733 13.4797 7.63278 13.8797C7.35822 14.2797 6.96411 14.5908 6.45042 14.813C5.93674 15.0263 5.32564 15.133 4.61712 15.133C4.27171 15.133 3.93959 15.1108 3.62075 15.0663C3.30192 15.0308 3.00522 14.9775 2.73067 14.9063C2.45611 14.8352 2.21256 14.7463 2 14.6397V13.2797C2.35426 13.4397 2.77052 13.5863 3.24878 13.7197C3.72703 13.8441 4.21414 13.9063 4.71011 13.9063C5.13522 13.9063 5.48949 13.8486 5.7729 13.733C6.05631 13.6175 6.26886 13.4575 6.41057 13.253C6.55227 13.0486 6.62313 12.8086 6.62313 12.533C6.62313 12.2397 6.54785 11.9952 6.39728 11.7997C6.25558 11.5952 6.02974 11.4086 5.71976 11.2397C5.41863 11.0619 5.01123 10.8752 4.49755 10.6797C4.14329 10.5463 3.82002 10.3997 3.52776 10.2397C3.24435 10.0708 2.99194 9.87523 2.77052 9.65301C2.55796 9.43079 2.39412 9.17301 2.27898 8.87967C2.16385 8.58634 2.10628 8.24412 2.10628 7.85301C2.10628 7.32856 2.2347 6.87967 2.49154 6.50634C2.75724 6.13301 3.12036 5.84856 3.5809 5.65301C4.04144 5.44856 4.57726 5.34634 5.18836 5.34634C5.70204 5.34634 6.17587 5.39967 6.60984 5.50634C7.05267 5.60412 7.47336 5.7419 7.8719 5.91967L7.42022 7.10634C7.0571 6.95523 6.68955 6.83079 6.31758 6.73301C5.9456 6.63523 5.55591 6.58634 5.14851 6.58634C4.79425 6.58634 4.49755 6.63967 4.25842 6.74634C4.0193 6.85301 3.83774 6.99967 3.71375 7.18634C3.59861 7.37301 3.54104 7.59079 3.54104 7.83967C3.54104 8.13301 3.60747 8.37745 3.74032 8.57301C3.87316 8.76856 4.08572 8.95079 4.37799 9.11967C4.67025 9.27967 5.05552 9.45745 5.53377 9.65301C6.06516 9.85745 6.51685 10.0797 6.88882 10.3197C7.26966 10.5597 7.55749 10.8486 7.75234 11.1863C7.94718 11.5152 8.04461 11.9286 8.04461 12.4263Z" fill="var(--fill-0, #1C3B30)"/>
<path d="M18.0056 7.67967C18.8205 7.67967 19.4316 7.88856 19.839 8.30634C20.2464 8.71523 20.4501 9.38634 20.4501 10.3197V14.9997H19.0419V10.5063C19.0419 9.94634 18.9312 9.53301 18.7097 9.26634C18.4883 8.99079 18.1518 8.85301 17.7001 8.85301C17.0536 8.85301 16.593 9.04856 16.3185 9.43967C16.0528 9.83079 15.9199 10.3997 15.9199 11.1463V14.9997H14.5117V10.5063C14.5117 10.133 14.463 9.82634 14.3656 9.58634C14.2682 9.33745 14.122 9.15523 13.9272 9.03967C13.7324 8.91523 13.4755 8.85301 13.1567 8.85301C12.7138 8.85301 12.364 8.95079 12.1072 9.14634C11.8592 9.3419 11.6776 9.62634 11.5625 9.99967C11.4562 10.373 11.4031 10.8308 11.4031 11.373V14.9997H9.99488V7.81301H11.1108L11.3101 8.77301H11.3765C11.5271 8.53301 11.7086 8.33301 11.9212 8.17301C12.1426 8.00412 12.3862 7.87967 12.6519 7.79967C12.9176 7.71967 13.201 7.67967 13.5021 7.67967C14.0512 7.67967 14.5073 7.77745 14.8704 7.97301C15.2335 8.15967 15.5037 8.45301 15.6808 8.85301H15.7472C15.9864 8.45301 16.3052 8.15967 16.7037 7.97301C17.1111 7.77745 17.5451 7.67967 18.0056 7.67967Z" fill="var(--fill-0, #1C3B30)"/>
<path d="M25.7011 7.69301C26.5779 7.69301 27.2333 7.89301 27.6673 8.29301C28.1012 8.68412 28.3182 9.29745 28.3182 10.133V14.9997H27.3086L27.0296 13.9997H26.9764C26.7727 14.2575 26.5602 14.4708 26.3388 14.6397C26.1262 14.8086 25.8782 14.933 25.5948 15.013C25.3203 15.093 24.9837 15.133 24.5852 15.133C24.1601 15.133 23.7748 15.0575 23.4294 14.9063C23.0928 14.7463 22.8271 14.5063 22.6323 14.1863C22.4375 13.8663 22.34 13.4575 22.34 12.9597C22.34 12.2397 22.619 11.6886 23.177 11.3063C23.7349 10.9152 24.5807 10.7019 25.7144 10.6663L26.9233 10.6263V10.253C26.9233 9.7019 26.8037 9.31967 26.5646 9.10634C26.3255 8.89301 25.9889 8.78634 25.555 8.78634C25.2007 8.78634 24.8509 8.84412 24.5055 8.95967C24.1689 9.06634 23.8501 9.19079 23.549 9.33301L23.1238 8.30634C23.4515 8.12856 23.8368 7.9819 24.2796 7.86634C24.7225 7.75079 25.1963 7.69301 25.7011 7.69301ZM25.9535 11.5863C25.1476 11.613 24.5852 11.7419 24.2663 11.973C23.9564 12.2041 23.8014 12.5286 23.8014 12.9463C23.8014 13.3197 23.9121 13.5952 24.1335 13.773C24.3549 13.9419 24.6427 14.0263 24.997 14.0263C25.5461 14.0263 26.0022 13.8752 26.3653 13.573C26.7373 13.2619 26.9233 12.7952 26.9233 12.173V11.5463L25.9535 11.5863Z" fill="var(--fill-0, #1C3B30)"/>
<path d="M34.2335 7.67967C34.3664 7.67967 34.5081 7.68856 34.6586 7.70634C34.818 7.71523 34.9509 7.73301 35.0572 7.75967L34.8977 9.07967C34.7826 9.05301 34.6586 9.03079 34.5258 9.01301C34.3929 8.99523 34.2512 8.98634 34.1007 8.98634C33.8527 8.98634 33.6091 9.03967 33.37 9.14634C33.1309 9.24412 32.9183 9.38634 32.7323 9.57301C32.5463 9.75967 32.3958 9.99079 32.2806 10.2663C32.1744 10.5419 32.1212 10.8619 32.1212 11.2263V14.9997H30.713V7.81301H31.8289L32.0149 9.09301H32.0814C32.2231 8.83523 32.4002 8.59967 32.6128 8.38634C32.8253 8.16412 33.0689 7.99079 33.3434 7.86634C33.618 7.7419 33.9147 7.67967 34.2335 7.67967Z" fill="var(--fill-0, #1C3B30)"/>
<path d="M39.1868 13.9863C39.3728 13.9863 39.5632 13.9686 39.758 13.933C39.9529 13.8975 40.1211 13.8575 40.2629 13.813V14.8797C40.1123 14.9508 39.9086 15.0086 39.6518 15.053C39.3949 15.1063 39.1381 15.133 38.8812 15.133C38.4915 15.133 38.1328 15.0663 37.8052 14.933C37.4863 14.7997 37.2295 14.5686 37.0346 14.2397C36.8398 13.9108 36.7424 13.453 36.7424 12.8663V8.89301H35.746V8.25301L36.7955 7.71967L37.287 6.19967H38.1506V7.81301H40.1964V8.89301H38.1506V12.8397C38.1506 13.2308 38.2436 13.5197 38.4295 13.7063C38.6244 13.893 38.8768 13.9863 39.1868 13.9863Z" fill="var(--fill-0, #1C3B30)"/>
<path d="M51.7486 14.9997L50.7257 12.2663H47.0857L46.076 14.9997H44.5748L48.175 5.43967H49.6629L53.2631 14.9997H51.7486ZM49.3839 8.35967C49.3574 8.27079 49.3087 8.12412 49.2378 7.91967C49.1758 7.70634 49.1138 7.48856 49.0518 7.26634C48.9898 7.04412 48.9411 6.86634 48.9057 6.73301C48.8614 6.91967 48.8127 7.11967 48.7596 7.33301C48.7064 7.53745 48.6533 7.72856 48.6001 7.90634C48.547 8.08412 48.5027 8.23523 48.4673 8.35967L47.5108 11.013H50.3272L49.3839 8.35967Z" fill="var(--fill-0, #1C3B30)"/>
<path d="M57.1194 7.67967C57.5976 7.67967 58.0183 7.77301 58.3814 7.95967C58.7534 8.13745 59.0634 8.39967 59.3114 8.74634H59.3778L59.5372 7.81301H60.693V15.1063C60.693 15.7819 60.5734 16.3463 60.3343 16.7997C60.0952 17.2619 59.732 17.6086 59.2449 17.8397C58.7578 18.0797 58.1379 18.1997 57.3851 18.1997C56.8537 18.1997 56.371 18.1641 55.937 18.093C55.503 18.0219 55.1089 17.9063 54.7547 17.7463V16.4797C55.1178 16.6663 55.5163 16.8041 55.9503 16.893C56.3931 16.9908 56.8802 17.0397 57.4116 17.0397C58.005 17.0397 58.4656 16.8752 58.7932 16.5463C59.1298 16.2175 59.2981 15.7686 59.2981 15.1997V14.9463C59.2981 14.8397 59.3025 14.6886 59.3114 14.493C59.3202 14.2975 59.3291 14.1508 59.3379 14.053H59.2848C59.0545 14.4086 58.7578 14.6797 58.3947 14.8663C58.0404 15.0441 57.6198 15.133 57.1326 15.133C56.2293 15.133 55.5207 14.8086 55.0071 14.1597C54.5022 13.5108 54.2498 12.5952 54.2498 11.413C54.2498 10.2575 54.5067 9.34634 55.0204 8.67967C55.534 8.01301 56.2337 7.67967 57.1194 7.67967ZM57.4249 8.83967C57.0529 8.83967 56.7385 8.9419 56.4817 9.14634C56.2248 9.3419 56.03 9.63523 55.8972 10.0263C55.7643 10.4086 55.6979 10.8797 55.6979 11.4397C55.6979 12.2752 55.844 12.9108 56.1363 13.3463C56.4374 13.773 56.8758 13.9863 57.4515 13.9863C57.788 13.9863 58.0714 13.9419 58.3017 13.853C58.5408 13.7641 58.7357 13.6263 58.8862 13.4397C59.0457 13.253 59.1608 13.0175 59.2316 12.733C59.3025 12.4397 59.3379 12.093 59.3379 11.693V11.413C59.3379 10.8086 59.2715 10.3197 59.1387 9.94634C59.0147 9.56412 58.8065 9.28412 58.5143 9.10634C58.2309 8.92856 57.8677 8.83967 57.4249 8.83967Z" fill="var(--fill-0, #1C3B30)"/>
<path d="M65.9819 7.67967C66.6107 7.67967 67.151 7.81301 67.6027 8.07967C68.0632 8.33745 68.413 8.71079 68.6522 9.19967C68.8913 9.68856 69.0108 10.2663 69.0108 10.933V11.7197H64.2017C64.2194 12.4486 64.4143 13.0086 64.7863 13.3997C65.1582 13.7908 65.6808 13.9863 66.3539 13.9863C66.8056 13.9863 67.2085 13.9463 67.5628 13.8663C67.9171 13.7775 68.2846 13.6486 68.6654 13.4797V14.653C68.3023 14.813 67.9392 14.933 67.5761 15.013C67.213 15.093 66.7746 15.133 66.2609 15.133C65.5701 15.133 64.959 14.9997 64.4276 14.733C63.905 14.4575 63.4932 14.0441 63.1921 13.493C62.8998 12.9419 62.7537 12.2619 62.7537 11.453C62.7537 10.653 62.8865 9.97301 63.1522 9.41301C63.4179 8.85301 63.7943 8.42634 64.2814 8.13301C64.7686 7.83079 65.3354 7.67967 65.9819 7.67967ZM65.9952 8.77301C65.4815 8.77301 65.0741 8.93745 64.773 9.26634C64.4719 9.59523 64.2903 10.0619 64.2283 10.6663H67.6027C67.6027 10.2841 67.5407 9.95523 67.4167 9.67967C67.3015 9.40412 67.1244 9.18634 66.8853 9.02634C66.655 8.85745 66.3583 8.77301 65.9952 8.77301Z" fill="var(--fill-0, #1C3B30)"/>
<path d="M74.6598 7.67967C75.5012 7.67967 76.1389 7.88856 76.5728 8.30634C77.0157 8.71523 77.2371 9.38634 77.2371 10.3197V14.9997H75.8422V10.5197C75.8422 9.95967 75.7226 9.5419 75.4835 9.26634C75.2443 8.99079 74.8724 8.85301 74.3675 8.85301C73.6413 8.85301 73.1365 9.07079 72.8531 9.50634C72.5785 9.93301 72.4412 10.5552 72.4412 11.373V14.9997H71.0331V7.81301H72.149L72.3483 8.78634H72.4147C72.5741 8.53745 72.7689 8.33301 72.9992 8.17301C73.2383 8.00412 73.4996 7.87967 73.783 7.79967C74.0664 7.71967 74.3587 7.67967 74.6598 7.67967Z" fill="var(--fill-0, #1C3B30)"/>
<path d="M82.2183 13.9863C82.4043 13.9863 82.5947 13.9686 82.7895 13.933C82.9844 13.8975 83.1526 13.8575 83.2943 13.813V14.8797C83.1438 14.9508 82.9401 15.0086 82.6832 15.053C82.4264 15.1063 82.1696 15.133 81.9127 15.133C81.523 15.133 81.1643 15.0663 80.8366 14.933C80.5178 14.7997 80.261 14.5686 80.0661 14.2397C79.8713 13.9108 79.7739 13.453 79.7739 12.8663V8.89301H78.7775V8.25301L79.827 7.71967L80.3185 6.19967H81.1821V7.81301H83.2279V8.89301H81.1821V12.8397C81.1821 13.2308 81.275 13.5197 81.461 13.7063C81.6559 13.893 81.9083 13.9863 82.2183 13.9863Z" fill="var(--fill-0, #1C3B30)"/>
<path d="M92.8273 9.87967H96.2547V14.6263C95.7499 14.7952 95.2318 14.9197 94.7004 14.9997C94.1779 15.0886 93.5801 15.133 92.907 15.133C91.9416 15.133 91.1224 14.9375 90.4493 14.5463C89.785 14.1552 89.2758 13.5952 88.9215 12.8663C88.5761 12.1375 88.4034 11.2619 88.4034 10.2397C88.4034 9.24412 88.5982 8.3819 88.9879 7.65301C89.3776 6.92412 89.9356 6.35967 90.6618 5.95967C91.3969 5.55079 92.287 5.34634 93.3321 5.34634C93.8546 5.34634 94.355 5.39967 94.8333 5.50634C95.3115 5.60412 95.7544 5.7419 96.1618 5.91967L95.6436 7.11967C95.316 6.96856 94.9484 6.84412 94.541 6.74634C94.1425 6.63967 93.7218 6.58634 93.2789 6.58634C92.5793 6.58634 91.9726 6.73745 91.4589 7.03967C90.9541 7.33301 90.5644 7.75523 90.2899 8.30634C90.0242 8.84856 89.8913 9.49745 89.8913 10.253C89.8913 10.9641 90.002 11.5952 90.2234 12.1463C90.4448 12.6975 90.7947 13.1286 91.2729 13.4397C91.7512 13.7508 92.3756 13.9063 93.1461 13.9063C93.5181 13.9063 93.8369 13.8886 94.1026 13.853C94.3683 13.8086 94.6119 13.7597 94.8333 13.7063V11.1197H92.8273V9.87967Z" fill="var(--fill-0, #1C3B30)"/>
<path d="M107.143 10.2263C107.143 10.9641 107.05 11.6352 106.864 12.2397C106.686 12.8352 106.412 13.3508 106.04 13.7863C105.677 14.2219 105.216 14.5552 104.658 14.7863C104.109 15.0175 103.467 15.133 102.732 15.133C101.979 15.133 101.324 15.0175 100.766 14.7863C100.217 14.5463 99.7561 14.213 99.3842 13.7863C99.0211 13.3508 98.7509 12.8308 98.5738 12.2263C98.3967 11.6219 98.3081 10.9508 98.3081 10.213C98.3081 9.23523 98.4675 8.3819 98.7864 7.65301C99.114 6.92412 99.6056 6.35523 100.261 5.94634C100.916 5.53745 101.744 5.33301 102.745 5.33301C103.719 5.33301 104.53 5.53745 105.176 5.94634C105.832 6.34634 106.323 6.91523 106.651 7.65301C106.979 8.3819 107.143 9.23967 107.143 10.2263ZM99.8359 10.2263C99.8359 10.9819 99.9377 11.6352 100.141 12.1863C100.345 12.7375 100.66 13.1597 101.085 13.453C101.519 13.7463 102.068 13.893 102.732 13.893C103.405 13.893 103.954 13.7463 104.379 13.453C104.804 13.1597 105.119 12.7375 105.322 12.1863C105.526 11.6352 105.628 10.9819 105.628 10.2263C105.628 9.08856 105.398 8.19523 104.937 7.54634C104.486 6.89745 103.755 6.57301 102.745 6.57301C102.072 6.57301 101.519 6.71967 101.085 7.01301C100.66 7.30634 100.345 7.72412 100.141 8.26634C99.9377 8.80856 99.8359 9.4619 99.8359 10.2263Z" fill="var(--fill-0, #1C3B30)"/>
</g>
</g>
</svg>
