<svg preserveAspectRatio="none" width="100%" height="100%" overflow="visible" style="display: block;" viewBox="0 0 32.0008 24" fill="none" xmlns="http://www.w3.org/2000/svg">
<g id="Frame 1410125956">
<path id="tree" fill-rule="evenodd" clip-rule="evenodd" d="M30.542 10.6945C30.1658 10.308 29.6668 9.62186 29.59 8.74641C29.567 8.51769 29.5286 8.28896 29.4825 8.07602C25.2215 7.68167 20.1006 8.59656 15.0487 10.9311C10.4806 13.0369 6.7186 15.9472 4.1543 19.0941C4.36927 19.1257 4.58424 19.1414 4.81457 19.1414H11.6936C12.3462 19.1414 12.876 19.7014 12.876 20.3718V20.6557C12.876 21.7836 11.7935 21.9334 11.7935 21.9334L6.19652 22.9193C5.99691 22.9508 5.828 23.0928 5.828 23.2979V23.9998H26.1965V23.2979C26.1965 23.0928 26.0276 22.9587 25.828 22.9193L20.2311 21.9334C20.2311 21.9334 19.1485 21.7836 19.1485 20.6557V20.3718C19.1485 19.7014 19.6783 19.1414 20.3309 19.1414H27.21C29.8587 19.1414 32.0008 16.941 32.0008 14.22C31.9854 12.9659 31.5631 11.7435 30.542 10.6945" fill="var(--fill-0, #00984E)"/>
<path id="tree_2" d="M9.8119 7.35099C5.84952 9.17209 2.4952 11.6092 0 14.2671V14.2671C0.0307102 16.7278 1.81958 18.7548 4.13052 19.086V19.086C6.71017 15.9549 10.4714 13.0367 15.0403 10.9309V10.9309C20.0998 8.60423 25.2131 7.68934 29.4733 8.0758V8.0758C29.1056 6.55361 28 5.42578 26.6488 4.93678V4.93678C26.5489 4.90524 26.4491 4.8658 26.3417 4.8098V4.8098C25.0841 4.54322 23.7213 4.40836 22.2848 4.40836V4.40836C18.4599 4.40757 14.1098 5.36662 9.8119 7.35099" fill="url(#paint0_linear_0_2650)"/>
<path id="tree_3" d="M16.0003 0C15.0176 0 14.2114 0.315479 13.4974 0.812358V0.812358C12.983 1.16806 12.2076 1.37233 11.4245 1.28558V1.28558C9.52043 1.06474 7.8544 2.00329 7.00219 3.58069V3.58069C6.62599 4.28263 5.95805 4.73218 5.34461 4.94434V4.94434C3.82446 5.47356 2.57993 6.9011 2.41102 8.74665V8.74665C2.33348 9.62211 1.83444 10.3083 1.459 10.6947V10.6947C0.43789 11.7437 0.015625 12.9662 0.015625 14.2202V14.2202V14.2833C2.50315 11.6175 5.85824 9.18832 9.81985 7.35855V7.35855C15.7316 4.62965 21.7431 3.84096 26.3496 4.81894V4.81894C25.8352 4.57444 25.3131 4.16432 24.9984 3.58069V3.58069C24.1462 2.00329 22.4801 1.06474 20.5761 1.28558V1.28558C19.793 1.37233 19.0176 1.17516 18.5032 0.812358V0.812358C17.7815 0.307592 16.9753 0 16.0003 0Z" fill="url(#paint1_linear_0_2650)"/>
</g>
<defs>
<linearGradient id="paint0_linear_0_2650" x1="1.71985" y1="-6.08098" x2="-3.27464" y2="19.4673" gradientUnits="userSpaceOnUse">
<stop stop-color="#4FB748"/>
<stop offset="0.2826" stop-color="#2DAA4B"/>
<stop offset="0.5523" stop-color="#14A04C"/>
<stop offset="0.7986" stop-color="#059A4E"/>
<stop offset="1" stop-color="#00984E"/>
</linearGradient>
<linearGradient id="paint1_linear_0_2650" x1="2.26619" y1="-5.09805" x2="-2.75089" y2="16.5364" gradientUnits="userSpaceOnUse">
<stop stop-color="#71BE44"/>
<stop offset="0.3707" stop-color="#42AE48"/>
<stop offset="0.7905" stop-color="#129E4C"/>
<stop offset="1" stop-color="#00984E"/>
</linearGradient>
</defs>
</svg>
