<svg preserveAspectRatio="none" width="100%" height="100%" overflow="visible" style="display: block;" viewBox="0 0 309 231" fill="none" xmlns="http://www.w3.org/2000/svg">
<g id="tree" opacity="0.3">
<path id="tree_2" fill-rule="evenodd" clip-rule="evenodd" d="M294.914 102.936C291.281 99.2166 286.463 92.6122 285.721 84.186C285.499 81.9845 285.128 79.7831 284.683 77.7334C243.538 73.9378 194.089 82.7436 145.307 105.214C101.196 125.482 64.8692 153.494 40.1077 183.783C42.1835 184.086 44.2593 184.238 46.4834 184.238H112.909C119.211 184.238 124.326 189.628 124.326 196.08V198.813C124.326 209.669 113.873 211.111 113.873 211.111L59.8279 220.6C57.9004 220.904 56.2694 222.27 56.2694 224.244V231H252.953V224.244C252.953 222.27 251.322 220.98 249.394 220.6L195.349 211.111C195.349 211.111 184.896 209.669 184.896 198.813V196.08C184.896 189.628 190.011 184.238 196.313 184.238H262.739C288.316 184.238 309 163.059 309 136.869C308.852 124.799 304.774 113.033 294.914 102.936" fill="var(--fill-0, white)"/>
<path id="tree_3" d="M94.7462 70.7532C56.4844 88.2813 24.0943 111.738 0 137.321V137.321C0.296545 161.005 17.5703 180.515 39.8853 183.703V183.703C64.7951 153.566 101.114 125.478 145.233 105.21V105.21C194.089 82.8157 243.464 74.0099 284.602 77.7296V77.7296C281.051 63.0785 270.375 52.2231 257.327 47.5166V47.5166C256.363 47.2129 255.399 46.8333 254.362 46.2944V46.2944C242.218 43.7285 229.059 42.4304 215.188 42.4304V42.4304C178.253 42.4229 136.248 51.6538 94.7462 70.7532" fill="var(--fill-0, white)"/>
<path id="tree_4" d="M154.5 0C145.011 0 137.226 3.03648 130.332 7.81895V7.81895C125.365 11.2426 117.877 13.2087 110.315 12.3737V12.3737C91.9292 10.2481 75.8416 19.2817 67.6125 34.4641V34.4641C63.9798 41.2203 57.5299 45.5473 51.6065 47.5893V47.5893C36.9275 52.683 24.91 66.4231 23.279 84.1865V84.1865C22.5302 92.6128 17.7113 99.2171 14.0861 102.937V102.937C4.22593 113.033 0.148438 124.8 0.148438 136.87V136.87V137.477C24.1686 111.819 56.5662 88.4376 94.8205 70.826V70.826C151.905 44.5604 209.954 36.9692 254.436 46.3823V46.3823C249.469 44.029 244.428 40.0816 241.388 34.4641V34.4641C233.159 19.2817 217.071 10.2481 198.685 12.3737V12.3737C191.124 13.2087 183.636 11.3109 178.669 7.81895V7.81895C171.7 2.96057 163.916 0 154.5 0Z" fill="var(--fill-0, white)"/>
</g>
</svg>
