<svg preserveAspectRatio="none" width="100%" height="100%" overflow="visible" style="display: block;" viewBox="0 0 335 250" fill="none" xmlns="http://www.w3.org/2000/svg">
<g id="tree" opacity="0.3">
<path id="tree_2" fill-rule="evenodd" clip-rule="evenodd" d="M319.729 111.403C315.791 107.377 310.566 100.23 309.762 91.1103C309.521 88.7278 309.119 86.3453 308.637 84.1271C264.029 80.0193 210.42 89.5494 157.534 113.868C109.711 135.803 70.3274 166.119 43.4824 198.899C45.7329 199.228 47.9834 199.392 50.3946 199.392H122.41C129.242 199.392 134.788 205.225 134.788 212.208V215.166C134.788 226.914 123.455 228.475 123.455 228.475L64.862 238.745C62.7722 239.073 61.004 240.552 61.004 242.688V250H274.237V242.688C274.237 240.552 272.469 239.155 270.379 238.745L211.786 228.475C211.786 228.475 200.453 226.914 200.453 215.166V212.208C200.453 205.225 205.999 199.392 212.831 199.392H284.846C312.576 199.392 335 176.47 335 148.127C334.839 135.064 330.419 122.33 319.729 111.403" fill="var(--fill-0, white)"/>
<path id="tree_3" d="M102.718 76.5728C61.2372 95.5426 26.1216 120.929 0 148.615V148.615C0.321497 174.248 19.0487 195.362 43.2414 198.813V198.813C70.2471 166.197 109.622 135.799 157.453 113.863V113.863C210.42 89.6274 263.949 80.0973 308.549 84.1229V84.1229C304.699 68.2668 293.125 56.5185 278.979 51.4248V51.4248C277.934 51.0962 276.889 50.6854 275.764 50.1021V50.1021C262.599 47.3253 248.332 45.9204 233.294 45.9204V45.9204C193.252 45.9122 147.712 55.9023 102.718 76.5728" fill="var(--fill-0, white)"/>
<path id="tree_4" d="M167.499 0C157.211 0 148.772 3.28624 141.297 8.46206V8.46206C135.912 12.1673 127.794 14.2951 119.596 13.3914V13.3914C99.6635 11.0911 82.2222 20.8676 73.3007 37.2988V37.2988C69.3624 44.6107 62.3698 49.2936 55.9479 51.5036V51.5036C40.0338 57.0162 27.0051 71.8865 25.2369 91.111V91.111C24.4251 100.23 19.2007 107.378 15.2704 111.403V111.403C4.58065 122.33 0.160066 135.064 0.160066 148.127V148.127V148.784C26.2013 121.016 61.3249 95.7117 102.798 76.6515V76.6515C164.686 48.2256 227.619 40.01 275.844 50.1973V50.1973C270.459 47.6505 264.993 43.3783 261.698 37.2988V37.2988C252.777 20.8676 235.335 11.0911 215.402 13.3914V13.3914C207.204 14.2951 199.087 12.2412 193.701 8.46206V8.46206C186.146 3.20408 177.707 0 167.499 0Z" fill="var(--fill-0, white)"/>
</g>
</svg>
